<svg width="158" height="153" viewBox="0 0 158 153" fill="none" xmlns="http://www.w3.org/2000/svg">
<path fill-rule="evenodd" clip-rule="evenodd" d="M4.77419 2.39344C4.77419 3.71546 3.70561 4.78689 2.38607 4.78689C1.06859 4.78689 0 3.71546 0 2.39344C0 1.07143 1.06859 0 2.38607 0C3.70561 0 4.77419 1.07143 4.77419 2.39344Z" fill="#1B8BC8"/>
<path fill-rule="evenodd" clip-rule="evenodd" d="M19.0965 2.39344C19.0965 3.71546 18.0279 4.78689 16.7088 4.78689C15.3909 4.78689 14.3223 3.71546 14.3223 2.39344C14.3223 1.07143 15.3909 0 16.7088 0C18.0279 0 19.0965 1.07143 19.0965 2.39344Z" fill="#1B8BC8"/>
<path fill-rule="evenodd" clip-rule="evenodd" d="M32.2254 2.39344C32.2254 3.71546 31.1565 4.78689 29.8383 4.78689C28.5195 4.78689 27.4512 3.71546 27.4512 2.39344C27.4512 1.07143 28.5195 0 29.8383 0C31.1565 0 32.2254 1.07143 32.2254 2.39344Z" fill="#1B8BC8"/>
<path fill-rule="evenodd" clip-rule="evenodd" d="M46.5476 2.39344C46.5476 3.71546 45.4788 4.78689 44.1595 4.78689C42.8412 4.78689 41.7734 3.71546 41.7734 2.39344C41.7734 1.07143 42.8412 0 44.1595 0C45.4788 0 46.5476 1.07143 46.5476 2.39344Z" fill="#1B8BC8"/>
<path fill-rule="evenodd" clip-rule="evenodd" d="M59.6765 2.39344C59.6765 3.71546 58.6085 4.78689 57.2889 4.78689C55.9709 4.78689 54.9023 3.71546 54.9023 2.39344C54.9023 1.07143 55.9709 0 57.2889 0C58.6085 0 59.6765 1.07143 59.6765 2.39344Z" fill="#1B8BC8"/>
<path fill-rule="evenodd" clip-rule="evenodd" d="M4.77419 15.5574C4.77419 16.8794 3.70561 17.9508 2.38607 17.9508C1.06859 17.9508 0 16.8794 0 15.5574C0 14.2359 1.06859 13.1639 2.38607 13.1639C3.70561 13.1639 4.77419 14.2359 4.77419 15.5574Z" fill="#1B8BC8"/>
<path fill-rule="evenodd" clip-rule="evenodd" d="M19.0965 15.5574C19.0965 16.8794 18.0279 17.9508 16.7088 17.9508C15.3909 17.9508 14.3223 16.8794 14.3223 15.5574C14.3223 14.2359 15.3909 13.1639 16.7088 13.1639C18.0279 13.1639 19.0965 14.2359 19.0965 15.5574Z" fill="#1B8BC8"/>
<path fill-rule="evenodd" clip-rule="evenodd" d="M32.2254 15.5574C32.2254 16.8794 31.1565 17.9508 29.8383 17.9508C28.5195 17.9508 27.4512 16.8794 27.4512 15.5574C27.4512 14.2359 28.5195 13.1639 29.8383 13.1639C31.1565 13.1639 32.2254 14.2359 32.2254 15.5574Z" fill="#1B8BC8"/>
<path fill-rule="evenodd" clip-rule="evenodd" d="M46.5476 15.5574C46.5476 16.8794 45.4788 17.9508 44.1595 17.9508C42.8412 17.9508 41.7734 16.8794 41.7734 15.5574C41.7734 14.2359 42.8412 13.1639 44.1595 13.1639C45.4788 13.1639 46.5476 14.2359 46.5476 15.5574Z" fill="#1B8BC8"/>
<path fill-rule="evenodd" clip-rule="evenodd" d="M59.6765 15.5574C59.6765 16.8794 58.6085 17.9508 57.2889 17.9508C55.9709 17.9508 54.9023 16.8794 54.9023 15.5574C54.9023 14.2359 55.9709 13.1639 57.2889 13.1639C58.6085 13.1639 59.6765 14.2359 59.6765 15.5574Z" fill="#1B8BC8"/>
<path fill-rule="evenodd" clip-rule="evenodd" d="M4.77419 30.5167C4.77419 32.1684 3.70561 33.5081 2.38607 33.5081C1.06859 33.5081 0 32.1684 0 30.5167C0 28.8643 1.06859 27.5245 2.38607 27.5245C3.70561 27.5245 4.77419 28.8643 4.77419 30.5167Z" fill="#1B8BC8"/>
<path fill-rule="evenodd" clip-rule="evenodd" d="M19.0965 30.5167C19.0965 32.1684 18.0279 33.5081 16.7088 33.5081C15.3909 33.5081 14.3223 32.1684 14.3223 30.5167C14.3223 28.8643 15.3909 27.5245 16.7088 27.5245C18.0279 27.5245 19.0965 28.8643 19.0965 30.5167Z" fill="#1B8BC8"/>
<path fill-rule="evenodd" clip-rule="evenodd" d="M32.2254 30.5167C32.2254 32.1684 31.1565 33.5081 29.8383 33.5081C28.5195 33.5081 27.4512 32.1684 27.4512 30.5167C27.4512 28.8643 28.5195 27.5245 29.8383 27.5245C31.1565 27.5245 32.2254 28.8643 32.2254 30.5167Z" fill="#1B8BC8"/>
<path fill-rule="evenodd" clip-rule="evenodd" d="M46.5476 30.5167C46.5476 32.1684 45.4788 33.5081 44.1595 33.5081C42.8412 33.5081 41.7734 32.1684 41.7734 30.5167C41.7734 28.8643 42.8412 27.5245 44.1595 27.5245C45.4788 27.5245 46.5476 28.8643 46.5476 30.5167Z" fill="#1B8BC8"/>
<path fill-rule="evenodd" clip-rule="evenodd" d="M59.6765 30.5167C59.6765 32.1684 58.6085 33.5081 57.2889 33.5081C55.9709 33.5081 54.9023 32.1684 54.9023 30.5167C54.9023 28.8643 55.9709 27.5245 57.2889 27.5245C58.6085 27.5245 59.6765 28.8643 59.6765 30.5167Z" fill="#1B8BC8"/>
<path fill-rule="evenodd" clip-rule="evenodd" d="M4.77419 43.68C4.77419 45.3323 3.70561 46.6721 2.38607 46.6721C1.06859 46.6721 0 45.3323 0 43.68C0 42.0283 1.06859 40.6885 2.38607 40.6885C3.70561 40.6885 4.77419 42.0283 4.77419 43.68Z" fill="#1B8BC8"/>
<path fill-rule="evenodd" clip-rule="evenodd" d="M19.0965 43.68C19.0965 45.3323 18.0279 46.6721 16.7088 46.6721C15.3909 46.6721 14.3223 45.3323 14.3223 43.68C14.3223 42.0283 15.3909 40.6885 16.7088 40.6885C18.0279 40.6885 19.0965 42.0283 19.0965 43.68Z" fill="#1B8BC8"/>
<path fill-rule="evenodd" clip-rule="evenodd" d="M32.2254 43.68C32.2254 45.3323 31.1565 46.6721 29.8383 46.6721C28.5195 46.6721 27.4512 45.3323 27.4512 43.68C27.4512 42.0283 28.5195 40.6885 29.8383 40.6885C31.1565 40.6885 32.2254 42.0283 32.2254 43.68Z" fill="#1B8BC8"/>
<path fill-rule="evenodd" clip-rule="evenodd" d="M46.5476 43.68C46.5476 45.3323 45.4788 46.6721 44.1595 46.6721C42.8412 46.6721 41.7734 45.3323 41.7734 43.68C41.7734 42.0283 42.8412 40.6885 44.1595 40.6885C45.4788 40.6885 46.5476 42.0283 46.5476 43.68Z" fill="#1B8BC8"/>
<path fill-rule="evenodd" clip-rule="evenodd" d="M59.6765 43.68C59.6765 45.3323 58.6085 46.6721 57.2889 46.6721C55.9709 46.6721 54.9023 45.3323 54.9023 43.68C54.9023 42.0283 55.9709 40.6885 57.2889 40.6885C58.6085 40.6885 59.6765 42.0283 59.6765 43.68Z" fill="#1B8BC8"/>
<path fill-rule="evenodd" clip-rule="evenodd" d="M4.77419 57.4426C4.77419 58.7641 3.70561 59.8361 2.38607 59.8361C1.06859 59.8361 0 58.7641 0 57.4426C0 56.1206 1.06859 55.0492 2.38607 55.0492C3.70561 55.0492 4.77419 56.1206 4.77419 57.4426Z" fill="#1B8BC8"/>
<path fill-rule="evenodd" clip-rule="evenodd" d="M19.0965 57.4426C19.0965 58.7641 18.0279 59.8361 16.7088 59.8361C15.3909 59.8361 14.3223 58.7641 14.3223 57.4426C14.3223 56.1206 15.3909 55.0492 16.7088 55.0492C18.0279 55.0492 19.0965 56.1206 19.0965 57.4426Z" fill="#1B8BC8"/>
<path fill-rule="evenodd" clip-rule="evenodd" d="M32.2254 57.4426C32.2254 58.7641 31.1565 59.8361 29.8383 59.8361C28.5195 59.8361 27.4512 58.7641 27.4512 57.4426C27.4512 56.1206 28.5195 55.0492 29.8383 55.0492C31.1565 55.0492 32.2254 56.1206 32.2254 57.4426Z" fill="#1B8BC8"/>
<path fill-rule="evenodd" clip-rule="evenodd" d="M46.5476 57.4426C46.5476 58.7641 45.4788 59.8361 44.1595 59.8361C42.8412 59.8361 41.7734 58.7641 41.7734 57.4426C41.7734 56.1206 42.8412 55.0492 44.1595 55.0492C45.4788 55.0492 46.5476 56.1206 46.5476 57.4426Z" fill="#1B8BC8"/>
<path fill-rule="evenodd" clip-rule="evenodd" d="M59.6765 57.4426C59.6765 58.7641 58.6085 59.8361 57.2889 59.8361C55.9709 59.8361 54.9023 58.7641 54.9023 57.4426C54.9023 56.1206 55.9709 55.0492 57.2889 55.0492C58.6085 55.0492 59.6765 56.1206 59.6765 57.4426Z" fill="#1B8BC8"/>
<path fill-rule="evenodd" clip-rule="evenodd" d="M4.77419 70.6066C4.77419 71.9286 3.70561 73 2.38607 73C1.06859 73 0 71.9286 0 70.6066C0 69.2846 1.06859 68.2131 2.38607 68.2131C3.70561 68.2131 4.77419 69.2846 4.77419 70.6066Z" fill="#1B8BC8"/>
<path fill-rule="evenodd" clip-rule="evenodd" d="M19.0965 70.6066C19.0965 71.9286 18.0279 73 16.7088 73C15.3909 73 14.3223 71.9286 14.3223 70.6066C14.3223 69.2846 15.3909 68.2131 16.7088 68.2131C18.0279 68.2131 19.0965 69.2846 19.0965 70.6066Z" fill="#1B8BC8"/>
<path fill-rule="evenodd" clip-rule="evenodd" d="M32.2254 70.6066C32.2254 71.9286 31.1565 73 29.8383 73C28.5195 73 27.4512 71.9286 27.4512 70.6066C27.4512 69.2846 28.5195 68.2131 29.8383 68.2131C31.1565 68.2131 32.2254 69.2846 32.2254 70.6066Z" fill="#1B8BC8"/>
<path fill-rule="evenodd" clip-rule="evenodd" d="M46.5476 70.6066C46.5476 71.9286 45.4788 73 44.1595 73C42.8412 73 41.7734 71.9286 41.7734 70.6066C41.7734 69.2846 42.8412 68.2131 44.1595 68.2131C45.4788 68.2131 46.5476 69.2846 46.5476 70.6066Z" fill="#1B8BC8"/>
<path fill-rule="evenodd" clip-rule="evenodd" d="M59.6765 70.6066C59.6765 71.9286 58.6085 73 57.2889 73C55.9709 73 54.9023 71.9286 54.9023 70.6066C54.9023 69.2846 55.9709 68.2131 57.2889 68.2131C58.6085 68.2131 59.6765 69.2846 59.6765 70.6066Z" fill="#1B8BC8"/>
<path fill-rule="evenodd" clip-rule="evenodd" d="M74.0008 2.39344C74.0008 3.71546 72.9327 4.78689 71.6131 4.78689C70.2952 4.78689 69.2266 3.71546 69.2266 2.39344C69.2266 1.07143 70.2952 0 71.6131 0C72.9327 0 74.0008 1.07143 74.0008 2.39344Z" fill="#1B8BC8"/>
<path fill-rule="evenodd" clip-rule="evenodd" d="M74.0008 15.5574C74.0008 16.8794 72.9327 17.9508 71.6131 17.9508C70.2952 17.9508 69.2266 16.8794 69.2266 15.5574C69.2266 14.2359 70.2952 13.1639 71.6131 13.1639C72.9327 13.1639 74.0008 14.2359 74.0008 15.5574Z" fill="#1B8BC8"/>
<path fill-rule="evenodd" clip-rule="evenodd" d="M74.0008 30.5167C74.0008 32.1684 72.9327 33.5081 71.6131 33.5081C70.2952 33.5081 69.2266 32.1684 69.2266 30.5167C69.2266 28.8643 70.2952 27.5245 71.6131 27.5245C72.9327 27.5245 74.0008 28.8643 74.0008 30.5167Z" fill="#1B8BC8"/>
<path fill-rule="evenodd" clip-rule="evenodd" d="M74.0008 43.68C74.0008 45.3323 72.9327 46.6721 71.6131 46.6721C70.2952 46.6721 69.2266 45.3323 69.2266 43.68C69.2266 42.0283 70.2952 40.6885 71.6131 40.6885C72.9327 40.6885 74.0008 42.0283 74.0008 43.68Z" fill="#1B8BC8"/>
<path fill-rule="evenodd" clip-rule="evenodd" d="M74.0008 57.4426C74.0008 58.7641 72.9327 59.8361 71.6131 59.8361C70.2952 59.8361 69.2266 58.7641 69.2266 57.4426C69.2266 56.1206 70.2952 55.0492 71.6131 55.0492C72.9327 55.0492 74.0008 56.1206 74.0008 57.4426Z" fill="#1B8BC8"/>
<path fill-rule="evenodd" clip-rule="evenodd" d="M74.0008 70.6066C74.0008 71.9286 72.9327 73 71.6131 73C70.2952 73 69.2266 71.9286 69.2266 70.6066C69.2266 69.2846 70.2952 68.2131 71.6131 68.2131C72.9327 68.2131 74.0008 69.2846 74.0008 70.6066Z" fill="#1B8BC8"/>
<path fill-rule="evenodd" clip-rule="evenodd" d="M4.77419 82.3934C4.77419 83.7155 3.70561 84.7869 2.38607 84.7869C1.06859 84.7869 0 83.7155 0 82.3934C0 81.0714 1.06859 80 2.38607 80C3.70561 80 4.77419 81.0714 4.77419 82.3934Z" fill="#1B8BC8"/>
<path fill-rule="evenodd" clip-rule="evenodd" d="M19.0965 82.3934C19.0965 83.7155 18.0279 84.7869 16.7088 84.7869C15.3909 84.7869 14.3223 83.7155 14.3223 82.3934C14.3223 81.0714 15.3909 80 16.7088 80C18.0279 80 19.0965 81.0714 19.0965 82.3934Z" fill="#1B8BC8"/>
<path fill-rule="evenodd" clip-rule="evenodd" d="M32.2254 82.3934C32.2254 83.7155 31.1565 84.7869 29.8383 84.7869C28.5195 84.7869 27.4512 83.7155 27.4512 82.3934C27.4512 81.0714 28.5195 80 29.8383 80C31.1565 80 32.2254 81.0714 32.2254 82.3934Z" fill="#1B8BC8"/>
<path fill-rule="evenodd" clip-rule="evenodd" d="M46.5476 82.3934C46.5476 83.7155 45.4788 84.7869 44.1595 84.7869C42.8412 84.7869 41.7734 83.7155 41.7734 82.3934C41.7734 81.0714 42.8412 80 44.1595 80C45.4788 80 46.5476 81.0714 46.5476 82.3934Z" fill="#1B8BC8"/>
<path fill-rule="evenodd" clip-rule="evenodd" d="M59.6765 82.3934C59.6765 83.7155 58.6085 84.7869 57.2889 84.7869C55.9709 84.7869 54.9023 83.7155 54.9023 82.3934C54.9023 81.0714 55.9709 80 57.2889 80C58.6085 80 59.6765 81.0714 59.6765 82.3934Z" fill="#1B8BC8"/>
<path fill-rule="evenodd" clip-rule="evenodd" d="M4.77419 95.5574C4.77419 96.8794 3.70561 97.9508 2.38607 97.9508C1.06859 97.9508 0 96.8794 0 95.5574C0 94.2359 1.06859 93.1639 2.38607 93.1639C3.70561 93.1639 4.77419 94.2359 4.77419 95.5574Z" fill="#1B8BC8"/>
<path fill-rule="evenodd" clip-rule="evenodd" d="M19.0965 95.5574C19.0965 96.8794 18.0279 97.9508 16.7088 97.9508C15.3909 97.9508 14.3223 96.8794 14.3223 95.5574C14.3223 94.2359 15.3909 93.1639 16.7088 93.1639C18.0279 93.1639 19.0965 94.2359 19.0965 95.5574Z" fill="#1B8BC8"/>
<path fill-rule="evenodd" clip-rule="evenodd" d="M32.2254 95.5574C32.2254 96.8794 31.1565 97.9508 29.8383 97.9508C28.5195 97.9508 27.4512 96.8794 27.4512 95.5574C27.4512 94.2359 28.5195 93.1639 29.8383 93.1639C31.1565 93.1639 32.2254 94.2359 32.2254 95.5574Z" fill="#1B8BC8"/>
<path fill-rule="evenodd" clip-rule="evenodd" d="M46.5476 95.5574C46.5476 96.8794 45.4788 97.9508 44.1595 97.9508C42.8412 97.9508 41.7734 96.8794 41.7734 95.5574C41.7734 94.2359 42.8412 93.1639 44.1595 93.1639C45.4788 93.1639 46.5476 94.2359 46.5476 95.5574Z" fill="#1B8BC8"/>
<path fill-rule="evenodd" clip-rule="evenodd" d="M59.6765 95.5574C59.6765 96.8794 58.6085 97.9508 57.2889 97.9508C55.9709 97.9508 54.9023 96.8794 54.9023 95.5574C54.9023 94.2359 55.9709 93.1639 57.2889 93.1639C58.6085 93.1639 59.6765 94.2359 59.6765 95.5574Z" fill="#1B8BC8"/>
<path fill-rule="evenodd" clip-rule="evenodd" d="M4.77419 110.517C4.77419 112.168 3.70561 113.508 2.38607 113.508C1.06859 113.508 0 112.168 0 110.517C0 108.864 1.06859 107.525 2.38607 107.525C3.70561 107.525 4.77419 108.864 4.77419 110.517Z" fill="#1B8BC8"/>
<path fill-rule="evenodd" clip-rule="evenodd" d="M19.0965 110.517C19.0965 112.168 18.0279 113.508 16.7088 113.508C15.3909 113.508 14.3223 112.168 14.3223 110.517C14.3223 108.864 15.3909 107.525 16.7088 107.525C18.0279 107.525 19.0965 108.864 19.0965 110.517Z" fill="#1B8BC8"/>
<path fill-rule="evenodd" clip-rule="evenodd" d="M32.2254 110.517C32.2254 112.168 31.1565 113.508 29.8383 113.508C28.5195 113.508 27.4512 112.168 27.4512 110.517C27.4512 108.864 28.5195 107.525 29.8383 107.525C31.1565 107.525 32.2254 108.864 32.2254 110.517Z" fill="#1B8BC8"/>
<path fill-rule="evenodd" clip-rule="evenodd" d="M46.5476 110.517C46.5476 112.168 45.4788 113.508 44.1595 113.508C42.8412 113.508 41.7734 112.168 41.7734 110.517C41.7734 108.864 42.8412 107.525 44.1595 107.525C45.4788 107.525 46.5476 108.864 46.5476 110.517Z" fill="#1B8BC8"/>
<path fill-rule="evenodd" clip-rule="evenodd" d="M59.6765 110.517C59.6765 112.168 58.6085 113.508 57.2889 113.508C55.9709 113.508 54.9023 112.168 54.9023 110.517C54.9023 108.864 55.9709 107.525 57.2889 107.525C58.6085 107.525 59.6765 108.864 59.6765 110.517Z" fill="#1B8BC8"/>
<path fill-rule="evenodd" clip-rule="evenodd" d="M4.77419 123.68C4.77419 125.332 3.70561 126.672 2.38607 126.672C1.06859 126.672 0 125.332 0 123.68C0 122.028 1.06859 120.688 2.38607 120.688C3.70561 120.688 4.77419 122.028 4.77419 123.68Z" fill="#1B8BC8"/>
<path fill-rule="evenodd" clip-rule="evenodd" d="M19.0965 123.68C19.0965 125.332 18.0279 126.672 16.7088 126.672C15.3909 126.672 14.3223 125.332 14.3223 123.68C14.3223 122.028 15.3909 120.688 16.7088 120.688C18.0279 120.688 19.0965 122.028 19.0965 123.68Z" fill="#1B8BC8"/>
<path fill-rule="evenodd" clip-rule="evenodd" d="M32.2254 123.68C32.2254 125.332 31.1565 126.672 29.8383 126.672C28.5195 126.672 27.4512 125.332 27.4512 123.68C27.4512 122.028 28.5195 120.688 29.8383 120.688C31.1565 120.688 32.2254 122.028 32.2254 123.68Z" fill="#1B8BC8"/>
<path fill-rule="evenodd" clip-rule="evenodd" d="M46.5476 123.68C46.5476 125.332 45.4788 126.672 44.1595 126.672C42.8412 126.672 41.7734 125.332 41.7734 123.68C41.7734 122.028 42.8412 120.688 44.1595 120.688C45.4788 120.688 46.5476 122.028 46.5476 123.68Z" fill="#1B8BC8"/>
<path fill-rule="evenodd" clip-rule="evenodd" d="M59.6765 123.68C59.6765 125.332 58.6085 126.672 57.2889 126.672C55.9709 126.672 54.9023 125.332 54.9023 123.68C54.9023 122.028 55.9709 120.688 57.2889 120.688C58.6085 120.688 59.6765 122.028 59.6765 123.68Z" fill="#1B8BC8"/>
<path fill-rule="evenodd" clip-rule="evenodd" d="M4.77419 137.443C4.77419 138.764 3.70561 139.836 2.38607 139.836C1.06859 139.836 0 138.764 0 137.443C0 136.121 1.06859 135.049 2.38607 135.049C3.70561 135.049 4.77419 136.121 4.77419 137.443Z" fill="#1B8BC8"/>
<path fill-rule="evenodd" clip-rule="evenodd" d="M19.0965 137.443C19.0965 138.764 18.0279 139.836 16.7088 139.836C15.3909 139.836 14.3223 138.764 14.3223 137.443C14.3223 136.121 15.3909 135.049 16.7088 135.049C18.0279 135.049 19.0965 136.121 19.0965 137.443Z" fill="#1B8BC8"/>
<path fill-rule="evenodd" clip-rule="evenodd" d="M32.2254 137.443C32.2254 138.764 31.1565 139.836 29.8383 139.836C28.5195 139.836 27.4512 138.764 27.4512 137.443C27.4512 136.121 28.5195 135.049 29.8383 135.049C31.1565 135.049 32.2254 136.121 32.2254 137.443Z" fill="#1B8BC8"/>
<path fill-rule="evenodd" clip-rule="evenodd" d="M46.5476 137.443C46.5476 138.764 45.4788 139.836 44.1595 139.836C42.8412 139.836 41.7734 138.764 41.7734 137.443C41.7734 136.121 42.8412 135.049 44.1595 135.049C45.4788 135.049 46.5476 136.121 46.5476 137.443Z" fill="#1B8BC8"/>
<path fill-rule="evenodd" clip-rule="evenodd" d="M59.6765 137.443C59.6765 138.764 58.6085 139.836 57.2889 139.836C55.9709 139.836 54.9023 138.764 54.9023 137.443C54.9023 136.121 55.9709 135.049 57.2889 135.049C58.6085 135.049 59.6765 136.121 59.6765 137.443Z" fill="#1B8BC8"/>
<path fill-rule="evenodd" clip-rule="evenodd" d="M4.77419 150.607C4.77419 151.929 3.70561 153 2.38607 153C1.06859 153 0 151.929 0 150.607C0 149.285 1.06859 148.213 2.38607 148.213C3.70561 148.213 4.77419 149.285 4.77419 150.607Z" fill="#1B8BC8"/>
<path fill-rule="evenodd" clip-rule="evenodd" d="M19.0965 150.607C19.0965 151.929 18.0279 153 16.7088 153C15.3909 153 14.3223 151.929 14.3223 150.607C14.3223 149.285 15.3909 148.213 16.7088 148.213C18.0279 148.213 19.0965 149.285 19.0965 150.607Z" fill="#1B8BC8"/>
<path fill-rule="evenodd" clip-rule="evenodd" d="M32.2254 150.607C32.2254 151.929 31.1565 153 29.8383 153C28.5195 153 27.4512 151.929 27.4512 150.607C27.4512 149.285 28.5195 148.213 29.8383 148.213C31.1565 148.213 32.2254 149.285 32.2254 150.607Z" fill="#1B8BC8"/>
<path fill-rule="evenodd" clip-rule="evenodd" d="M46.5476 150.607C46.5476 151.929 45.4788 153 44.1595 153C42.8412 153 41.7734 151.929 41.7734 150.607C41.7734 149.285 42.8412 148.213 44.1595 148.213C45.4788 148.213 46.5476 149.285 46.5476 150.607Z" fill="#1B8BC8"/>
<path fill-rule="evenodd" clip-rule="evenodd" d="M59.6765 150.607C59.6765 151.929 58.6085 153 57.2889 153C55.9709 153 54.9023 151.929 54.9023 150.607C54.9023 149.285 55.9709 148.213 57.2889 148.213C58.6085 148.213 59.6765 149.285 59.6765 150.607Z" fill="#1B8BC8"/>
<path fill-rule="evenodd" clip-rule="evenodd" d="M74.0008 82.3934C74.0008 83.7155 72.9327 84.7869 71.6131 84.7869C70.2952 84.7869 69.2266 83.7155 69.2266 82.3934C69.2266 81.0714 70.2952 80 71.6131 80C72.9327 80 74.0008 81.0714 74.0008 82.3934Z" fill="#1B8BC8"/>
<path fill-rule="evenodd" clip-rule="evenodd" d="M74.0008 95.5574C74.0008 96.8794 72.9327 97.9508 71.6131 97.9508C70.2952 97.9508 69.2266 96.8794 69.2266 95.5574C69.2266 94.2359 70.2952 93.1639 71.6131 93.1639C72.9327 93.1639 74.0008 94.2359 74.0008 95.5574Z" fill="#1B8BC8"/>
<path fill-rule="evenodd" clip-rule="evenodd" d="M74.0008 110.517C74.0008 112.168 72.9327 113.508 71.6131 113.508C70.2952 113.508 69.2266 112.168 69.2266 110.517C69.2266 108.864 70.2952 107.525 71.6131 107.525C72.9327 107.525 74.0008 108.864 74.0008 110.517Z" fill="#1B8BC8"/>
<path fill-rule="evenodd" clip-rule="evenodd" d="M74.0008 123.68C74.0008 125.332 72.9327 126.672 71.6131 126.672C70.2952 126.672 69.2266 125.332 69.2266 123.68C69.2266 122.028 70.2952 120.688 71.6131 120.688C72.9327 120.688 74.0008 122.028 74.0008 123.68Z" fill="#1B8BC8"/>
<path fill-rule="evenodd" clip-rule="evenodd" d="M74.0008 137.443C74.0008 138.764 72.9327 139.836 71.6131 139.836C70.2952 139.836 69.2266 138.764 69.2266 137.443C69.2266 136.121 70.2952 135.049 71.6131 135.049C72.9327 135.049 74.0008 136.121 74.0008 137.443Z" fill="#1B8BC8"/>
<path fill-rule="evenodd" clip-rule="evenodd" d="M74.0008 150.607C74.0008 151.929 72.9327 153 71.6131 153C70.2952 153 69.2266 151.929 69.2266 150.607C69.2266 149.285 70.2952 148.213 71.6131 148.213C72.9327 148.213 74.0008 149.285 74.0008 150.607Z" fill="#1B8BC8"/>
<path fill-rule="evenodd" clip-rule="evenodd" d="M88.7742 2.39344C88.7742 3.71546 87.7056 4.78689 86.3861 4.78689C85.0686 4.78689 84 3.71546 84 2.39344C84 1.07143 85.0686 0 86.3861 0C87.7056 0 88.7742 1.07143 88.7742 2.39344Z" fill="#1B8BC8"/>
<path fill-rule="evenodd" clip-rule="evenodd" d="M103.096 2.39344C103.096 3.71546 102.028 4.78689 100.709 4.78689C99.3909 4.78689 98.3223 3.71546 98.3223 2.39344C98.3223 1.07143 99.3909 0 100.709 0C102.028 0 103.096 1.07143 103.096 2.39344Z" fill="#1B8BC8"/>
<path fill-rule="evenodd" clip-rule="evenodd" d="M116.225 2.39344C116.225 3.71546 115.157 4.78689 113.838 4.78689C112.519 4.78689 111.451 3.71546 111.451 2.39344C111.451 1.07143 112.519 0 113.838 0C115.157 0 116.225 1.07143 116.225 2.39344Z" fill="#1B8BC8"/>
<path fill-rule="evenodd" clip-rule="evenodd" d="M130.548 2.39344C130.548 3.71546 129.479 4.78689 128.16 4.78689C126.841 4.78689 125.773 3.71546 125.773 2.39344C125.773 1.07143 126.841 0 128.16 0C129.479 0 130.548 1.07143 130.548 2.39344Z" fill="#1B8BC8"/>
<path fill-rule="evenodd" clip-rule="evenodd" d="M143.677 2.39344C143.677 3.71546 142.608 4.78689 141.289 4.78689C139.971 4.78689 138.902 3.71546 138.902 2.39344C138.902 1.07143 139.971 0 141.289 0C142.608 0 143.677 1.07143 143.677 2.39344Z" fill="#1B8BC8"/>
<path fill-rule="evenodd" clip-rule="evenodd" d="M88.7742 15.5574C88.7742 16.8794 87.7056 17.9508 86.3861 17.9508C85.0686 17.9508 84 16.8794 84 15.5574C84 14.2359 85.0686 13.1639 86.3861 13.1639C87.7056 13.1639 88.7742 14.2359 88.7742 15.5574Z" fill="#1B8BC8"/>
<path fill-rule="evenodd" clip-rule="evenodd" d="M103.096 15.5574C103.096 16.8794 102.028 17.9508 100.709 17.9508C99.3909 17.9508 98.3223 16.8794 98.3223 15.5574C98.3223 14.2359 99.3909 13.1639 100.709 13.1639C102.028 13.1639 103.096 14.2359 103.096 15.5574Z" fill="#1B8BC8"/>
<path fill-rule="evenodd" clip-rule="evenodd" d="M116.225 15.5574C116.225 16.8794 115.157 17.9508 113.838 17.9508C112.519 17.9508 111.451 16.8794 111.451 15.5574C111.451 14.2359 112.519 13.1639 113.838 13.1639C115.157 13.1639 116.225 14.2359 116.225 15.5574Z" fill="#1B8BC8"/>
<path fill-rule="evenodd" clip-rule="evenodd" d="M130.548 15.5574C130.548 16.8794 129.479 17.9508 128.16 17.9508C126.841 17.9508 125.773 16.8794 125.773 15.5574C125.773 14.2359 126.841 13.1639 128.16 13.1639C129.479 13.1639 130.548 14.2359 130.548 15.5574Z" fill="#1B8BC8"/>
<path fill-rule="evenodd" clip-rule="evenodd" d="M143.677 15.5574C143.677 16.8794 142.608 17.9508 141.289 17.9508C139.971 17.9508 138.902 16.8794 138.902 15.5574C138.902 14.2359 139.971 13.1639 141.289 13.1639C142.608 13.1639 143.677 14.2359 143.677 15.5574Z" fill="#1B8BC8"/>
<path fill-rule="evenodd" clip-rule="evenodd" d="M88.7742 30.5167C88.7742 32.1684 87.7056 33.5081 86.3861 33.5081C85.0686 33.5081 84 32.1684 84 30.5167C84 28.8643 85.0686 27.5245 86.3861 27.5245C87.7056 27.5245 88.7742 28.8643 88.7742 30.5167Z" fill="#1B8BC8"/>
<path fill-rule="evenodd" clip-rule="evenodd" d="M103.096 30.5167C103.096 32.1684 102.028 33.5081 100.709 33.5081C99.3909 33.5081 98.3223 32.1684 98.3223 30.5167C98.3223 28.8643 99.3909 27.5245 100.709 27.5245C102.028 27.5245 103.096 28.8643 103.096 30.5167Z" fill="#1B8BC8"/>
<path fill-rule="evenodd" clip-rule="evenodd" d="M116.225 30.5167C116.225 32.1684 115.157 33.5081 113.838 33.5081C112.519 33.5081 111.451 32.1684 111.451 30.5167C111.451 28.8643 112.519 27.5245 113.838 27.5245C115.157 27.5245 116.225 28.8643 116.225 30.5167Z" fill="#1B8BC8"/>
<path fill-rule="evenodd" clip-rule="evenodd" d="M130.548 30.5167C130.548 32.1684 129.479 33.5081 128.16 33.5081C126.841 33.5081 125.773 32.1684 125.773 30.5167C125.773 28.8643 126.841 27.5245 128.16 27.5245C129.479 27.5245 130.548 28.8643 130.548 30.5167Z" fill="#1B8BC8"/>
<path fill-rule="evenodd" clip-rule="evenodd" d="M143.677 30.5167C143.677 32.1684 142.608 33.5081 141.289 33.5081C139.971 33.5081 138.902 32.1684 138.902 30.5167C138.902 28.8643 139.971 27.5245 141.289 27.5245C142.608 27.5245 143.677 28.8643 143.677 30.5167Z" fill="#1B8BC8"/>
<path fill-rule="evenodd" clip-rule="evenodd" d="M88.7742 43.68C88.7742 45.3323 87.7056 46.6721 86.3861 46.6721C85.0686 46.6721 84 45.3323 84 43.68C84 42.0283 85.0686 40.6885 86.3861 40.6885C87.7056 40.6885 88.7742 42.0283 88.7742 43.68Z" fill="#1B8BC8"/>
<path fill-rule="evenodd" clip-rule="evenodd" d="M103.096 43.68C103.096 45.3323 102.028 46.6721 100.709 46.6721C99.3909 46.6721 98.3223 45.3323 98.3223 43.68C98.3223 42.0283 99.3909 40.6885 100.709 40.6885C102.028 40.6885 103.096 42.0283 103.096 43.68Z" fill="#1B8BC8"/>
<path fill-rule="evenodd" clip-rule="evenodd" d="M116.225 43.68C116.225 45.3323 115.157 46.6721 113.838 46.6721C112.519 46.6721 111.451 45.3323 111.451 43.68C111.451 42.0283 112.519 40.6885 113.838 40.6885C115.157 40.6885 116.225 42.0283 116.225 43.68Z" fill="#1B8BC8"/>
<path fill-rule="evenodd" clip-rule="evenodd" d="M130.548 43.68C130.548 45.3323 129.479 46.6721 128.16 46.6721C126.841 46.6721 125.773 45.3323 125.773 43.68C125.773 42.0283 126.841 40.6885 128.16 40.6885C129.479 40.6885 130.548 42.0283 130.548 43.68Z" fill="#1B8BC8"/>
<path fill-rule="evenodd" clip-rule="evenodd" d="M143.677 43.68C143.677 45.3323 142.608 46.6721 141.289 46.6721C139.971 46.6721 138.902 45.3323 138.902 43.68C138.902 42.0283 139.971 40.6885 141.289 40.6885C142.608 40.6885 143.677 42.0283 143.677 43.68Z" fill="#1B8BC8"/>
<path fill-rule="evenodd" clip-rule="evenodd" d="M88.7742 57.4426C88.7742 58.7641 87.7056 59.8361 86.3861 59.8361C85.0686 59.8361 84 58.7641 84 57.4426C84 56.1206 85.0686 55.0492 86.3861 55.0492C87.7056 55.0492 88.7742 56.1206 88.7742 57.4426Z" fill="#1B8BC8"/>
<path fill-rule="evenodd" clip-rule="evenodd" d="M103.096 57.4426C103.096 58.7641 102.028 59.8361 100.709 59.8361C99.3909 59.8361 98.3223 58.7641 98.3223 57.4426C98.3223 56.1206 99.3909 55.0492 100.709 55.0492C102.028 55.0492 103.096 56.1206 103.096 57.4426Z" fill="#1B8BC8"/>
<path fill-rule="evenodd" clip-rule="evenodd" d="M116.225 57.4426C116.225 58.7641 115.157 59.8361 113.838 59.8361C112.519 59.8361 111.451 58.7641 111.451 57.4426C111.451 56.1206 112.519 55.0492 113.838 55.0492C115.157 55.0492 116.225 56.1206 116.225 57.4426Z" fill="#1B8BC8"/>
<path fill-rule="evenodd" clip-rule="evenodd" d="M130.548 57.4426C130.548 58.7641 129.479 59.8361 128.16 59.8361C126.841 59.8361 125.773 58.7641 125.773 57.4426C125.773 56.1206 126.841 55.0492 128.16 55.0492C129.479 55.0492 130.548 56.1206 130.548 57.4426Z" fill="#1B8BC8"/>
<path fill-rule="evenodd" clip-rule="evenodd" d="M143.677 57.4426C143.677 58.7641 142.608 59.8361 141.289 59.8361C139.971 59.8361 138.902 58.7641 138.902 57.4426C138.902 56.1206 139.971 55.0492 141.289 55.0492C142.608 55.0492 143.677 56.1206 143.677 57.4426Z" fill="#1B8BC8"/>
<path fill-rule="evenodd" clip-rule="evenodd" d="M88.7742 70.6066C88.7742 71.9286 87.7056 73 86.3861 73C85.0686 73 84 71.9286 84 70.6066C84 69.2846 85.0686 68.2131 86.3861 68.2131C87.7056 68.2131 88.7742 69.2846 88.7742 70.6066Z" fill="#1B8BC8"/>
<path fill-rule="evenodd" clip-rule="evenodd" d="M103.096 70.6066C103.096 71.9286 102.028 73 100.709 73C99.3909 73 98.3223 71.9286 98.3223 70.6066C98.3223 69.2846 99.3909 68.2131 100.709 68.2131C102.028 68.2131 103.096 69.2846 103.096 70.6066Z" fill="#1B8BC8"/>
<path fill-rule="evenodd" clip-rule="evenodd" d="M116.225 70.6066C116.225 71.9286 115.157 73 113.838 73C112.519 73 111.451 71.9286 111.451 70.6066C111.451 69.2846 112.519 68.2131 113.838 68.2131C115.157 68.2131 116.225 69.2846 116.225 70.6066Z" fill="#1B8BC8"/>
<path fill-rule="evenodd" clip-rule="evenodd" d="M130.548 70.6066C130.548 71.9286 129.479 73 128.16 73C126.841 73 125.773 71.9286 125.773 70.6066C125.773 69.2846 126.841 68.2131 128.16 68.2131C129.479 68.2131 130.548 69.2846 130.548 70.6066Z" fill="#1B8BC8"/>
<path fill-rule="evenodd" clip-rule="evenodd" d="M143.677 70.6066C143.677 71.9286 142.608 73 141.289 73C139.971 73 138.902 71.9286 138.902 70.6066C138.902 69.2846 139.971 68.2131 141.289 68.2131C142.608 68.2131 143.677 69.2846 143.677 70.6066Z" fill="#1B8BC8"/>
<path fill-rule="evenodd" clip-rule="evenodd" d="M158.001 2.39344C158.001 3.71546 156.933 4.78689 155.613 4.78689C154.295 4.78689 153.227 3.71546 153.227 2.39344C153.227 1.07143 154.295 0 155.613 0C156.933 0 158.001 1.07143 158.001 2.39344Z" fill="#1B8BC8"/>
<path fill-rule="evenodd" clip-rule="evenodd" d="M158.001 15.5574C158.001 16.8794 156.933 17.9508 155.613 17.9508C154.295 17.9508 153.227 16.8794 153.227 15.5574C153.227 14.2359 154.295 13.1639 155.613 13.1639C156.933 13.1639 158.001 14.2359 158.001 15.5574Z" fill="#1B8BC8"/>
<path fill-rule="evenodd" clip-rule="evenodd" d="M158.001 30.5167C158.001 32.1684 156.933 33.5081 155.613 33.5081C154.295 33.5081 153.227 32.1684 153.227 30.5167C153.227 28.8643 154.295 27.5245 155.613 27.5245C156.933 27.5245 158.001 28.8643 158.001 30.5167Z" fill="#1B8BC8"/>
<path fill-rule="evenodd" clip-rule="evenodd" d="M158.001 43.68C158.001 45.3323 156.933 46.6721 155.613 46.6721C154.295 46.6721 153.227 45.3323 153.227 43.68C153.227 42.0283 154.295 40.6885 155.613 40.6885C156.933 40.6885 158.001 42.0283 158.001 43.68Z" fill="#1B8BC8"/>
<path fill-rule="evenodd" clip-rule="evenodd" d="M158.001 57.4426C158.001 58.7641 156.933 59.8361 155.613 59.8361C154.295 59.8361 153.227 58.7641 153.227 57.4426C153.227 56.1206 154.295 55.0492 155.613 55.0492C156.933 55.0492 158.001 56.1206 158.001 57.4426Z" fill="#1B8BC8"/>
<path fill-rule="evenodd" clip-rule="evenodd" d="M158.001 70.6066C158.001 71.9286 156.933 73 155.613 73C154.295 73 153.227 71.9286 153.227 70.6066C153.227 69.2846 154.295 68.2131 155.613 68.2131C156.933 68.2131 158.001 69.2846 158.001 70.6066Z" fill="#1B8BC8"/>
<path fill-rule="evenodd" clip-rule="evenodd" d="M88.7742 82.3934C88.7742 83.7155 87.7056 84.7869 86.3861 84.7869C85.0686 84.7869 84 83.7155 84 82.3934C84 81.0714 85.0686 80 86.3861 80C87.7056 80 88.7742 81.0714 88.7742 82.3934Z" fill="#1B8BC8"/>
<path fill-rule="evenodd" clip-rule="evenodd" d="M103.096 82.3934C103.096 83.7155 102.028 84.7869 100.709 84.7869C99.3909 84.7869 98.3223 83.7155 98.3223 82.3934C98.3223 81.0714 99.3909 80 100.709 80C102.028 80 103.096 81.0714 103.096 82.3934Z" fill="#1B8BC8"/>
<path fill-rule="evenodd" clip-rule="evenodd" d="M116.225 82.3934C116.225 83.7155 115.157 84.7869 113.838 84.7869C112.519 84.7869 111.451 83.7155 111.451 82.3934C111.451 81.0714 112.519 80 113.838 80C115.157 80 116.225 81.0714 116.225 82.3934Z" fill="#1B8BC8"/>
<path fill-rule="evenodd" clip-rule="evenodd" d="M130.548 82.3934C130.548 83.7155 129.479 84.7869 128.16 84.7869C126.841 84.7869 125.773 83.7155 125.773 82.3934C125.773 81.0714 126.841 80 128.16 80C129.479 80 130.548 81.0714 130.548 82.3934Z" fill="#1B8BC8"/>
<path fill-rule="evenodd" clip-rule="evenodd" d="M143.677 82.3934C143.677 83.7155 142.608 84.7869 141.289 84.7869C139.971 84.7869 138.902 83.7155 138.902 82.3934C138.902 81.0714 139.971 80 141.289 80C142.608 80 143.677 81.0714 143.677 82.3934Z" fill="#1B8BC8"/>
<path fill-rule="evenodd" clip-rule="evenodd" d="M88.7742 95.5574C88.7742 96.8794 87.7056 97.9508 86.3861 97.9508C85.0686 97.9508 84 96.8794 84 95.5574C84 94.2359 85.0686 93.1639 86.3861 93.1639C87.7056 93.1639 88.7742 94.2359 88.7742 95.5574Z" fill="#1B8BC8"/>
<path fill-rule="evenodd" clip-rule="evenodd" d="M103.096 95.5574C103.096 96.8794 102.028 97.9508 100.709 97.9508C99.3909 97.9508 98.3223 96.8794 98.3223 95.5574C98.3223 94.2359 99.3909 93.1639 100.709 93.1639C102.028 93.1639 103.096 94.2359 103.096 95.5574Z" fill="#1B8BC8"/>
<path fill-rule="evenodd" clip-rule="evenodd" d="M116.225 95.5574C116.225 96.8794 115.157 97.9508 113.838 97.9508C112.519 97.9508 111.451 96.8794 111.451 95.5574C111.451 94.2359 112.519 93.1639 113.838 93.1639C115.157 93.1639 116.225 94.2359 116.225 95.5574Z" fill="#1B8BC8"/>
<path fill-rule="evenodd" clip-rule="evenodd" d="M130.548 95.5574C130.548 96.8794 129.479 97.9508 128.16 97.9508C126.841 97.9508 125.773 96.8794 125.773 95.5574C125.773 94.2359 126.841 93.1639 128.16 93.1639C129.479 93.1639 130.548 94.2359 130.548 95.5574Z" fill="#1B8BC8"/>
<path fill-rule="evenodd" clip-rule="evenodd" d="M143.677 95.5574C143.677 96.8794 142.608 97.9508 141.289 97.9508C139.971 97.9508 138.902 96.8794 138.902 95.5574C138.902 94.2359 139.971 93.1639 141.289 93.1639C142.608 93.1639 143.677 94.2359 143.677 95.5574Z" fill="#1B8BC8"/>
<path fill-rule="evenodd" clip-rule="evenodd" d="M88.7742 110.517C88.7742 112.168 87.7056 113.508 86.3861 113.508C85.0686 113.508 84 112.168 84 110.517C84 108.864 85.0686 107.525 86.3861 107.525C87.7056 107.525 88.7742 108.864 88.7742 110.517Z" fill="#1B8BC8"/>
<path fill-rule="evenodd" clip-rule="evenodd" d="M103.096 110.517C103.096 112.168 102.028 113.508 100.709 113.508C99.3909 113.508 98.3223 112.168 98.3223 110.517C98.3223 108.864 99.3909 107.525 100.709 107.525C102.028 107.525 103.096 108.864 103.096 110.517Z" fill="#1B8BC8"/>
<path fill-rule="evenodd" clip-rule="evenodd" d="M116.225 110.517C116.225 112.168 115.157 113.508 113.838 113.508C112.519 113.508 111.451 112.168 111.451 110.517C111.451 108.864 112.519 107.525 113.838 107.525C115.157 107.525 116.225 108.864 116.225 110.517Z" fill="#1B8BC8"/>
<path fill-rule="evenodd" clip-rule="evenodd" d="M130.548 110.517C130.548 112.168 129.479 113.508 128.16 113.508C126.841 113.508 125.773 112.168 125.773 110.517C125.773 108.864 126.841 107.525 128.16 107.525C129.479 107.525 130.548 108.864 130.548 110.517Z" fill="#1B8BC8"/>
<path fill-rule="evenodd" clip-rule="evenodd" d="M143.677 110.517C143.677 112.168 142.608 113.508 141.289 113.508C139.971 113.508 138.902 112.168 138.902 110.517C138.902 108.864 139.971 107.525 141.289 107.525C142.608 107.525 143.677 108.864 143.677 110.517Z" fill="#1B8BC8"/>
<path fill-rule="evenodd" clip-rule="evenodd" d="M88.7742 123.68C88.7742 125.332 87.7056 126.672 86.3861 126.672C85.0686 126.672 84 125.332 84 123.68C84 122.028 85.0686 120.688 86.3861 120.688C87.7056 120.688 88.7742 122.028 88.7742 123.68Z" fill="#1B8BC8"/>
<path fill-rule="evenodd" clip-rule="evenodd" d="M103.096 123.68C103.096 125.332 102.028 126.672 100.709 126.672C99.3909 126.672 98.3223 125.332 98.3223 123.68C98.3223 122.028 99.3909 120.688 100.709 120.688C102.028 120.688 103.096 122.028 103.096 123.68Z" fill="#1B8BC8"/>
<path fill-rule="evenodd" clip-rule="evenodd" d="M116.225 123.68C116.225 125.332 115.157 126.672 113.838 126.672C112.519 126.672 111.451 125.332 111.451 123.68C111.451 122.028 112.519 120.688 113.838 120.688C115.157 120.688 116.225 122.028 116.225 123.68Z" fill="#1B8BC8"/>
<path fill-rule="evenodd" clip-rule="evenodd" d="M130.548 123.68C130.548 125.332 129.479 126.672 128.16 126.672C126.841 126.672 125.773 125.332 125.773 123.68C125.773 122.028 126.841 120.688 128.16 120.688C129.479 120.688 130.548 122.028 130.548 123.68Z" fill="#1B8BC8"/>
<path fill-rule="evenodd" clip-rule="evenodd" d="M143.677 123.68C143.677 125.332 142.608 126.672 141.289 126.672C139.971 126.672 138.902 125.332 138.902 123.68C138.902 122.028 139.971 120.688 141.289 120.688C142.608 120.688 143.677 122.028 143.677 123.68Z" fill="#1B8BC8"/>
<path fill-rule="evenodd" clip-rule="evenodd" d="M88.7742 137.443C88.7742 138.764 87.7056 139.836 86.3861 139.836C85.0686 139.836 84 138.764 84 137.443C84 136.121 85.0686 135.049 86.3861 135.049C87.7056 135.049 88.7742 136.121 88.7742 137.443Z" fill="#1B8BC8"/>
<path fill-rule="evenodd" clip-rule="evenodd" d="M103.096 137.443C103.096 138.764 102.028 139.836 100.709 139.836C99.3909 139.836 98.3223 138.764 98.3223 137.443C98.3223 136.121 99.3909 135.049 100.709 135.049C102.028 135.049 103.096 136.121 103.096 137.443Z" fill="#1B8BC8"/>
<path fill-rule="evenodd" clip-rule="evenodd" d="M116.225 137.443C116.225 138.764 115.157 139.836 113.838 139.836C112.519 139.836 111.451 138.764 111.451 137.443C111.451 136.121 112.519 135.049 113.838 135.049C115.157 135.049 116.225 136.121 116.225 137.443Z" fill="#1B8BC8"/>
<path fill-rule="evenodd" clip-rule="evenodd" d="M130.548 137.443C130.548 138.764 129.479 139.836 128.16 139.836C126.841 139.836 125.773 138.764 125.773 137.443C125.773 136.121 126.841 135.049 128.16 135.049C129.479 135.049 130.548 136.121 130.548 137.443Z" fill="#1B8BC8"/>
<path fill-rule="evenodd" clip-rule="evenodd" d="M143.677 137.443C143.677 138.764 142.608 139.836 141.289 139.836C139.971 139.836 138.902 138.764 138.902 137.443C138.902 136.121 139.971 135.049 141.289 135.049C142.608 135.049 143.677 136.121 143.677 137.443Z" fill="#1B8BC8"/>
<path fill-rule="evenodd" clip-rule="evenodd" d="M88.7742 150.607C88.7742 151.929 87.7056 153 86.3861 153C85.0686 153 84 151.929 84 150.607C84 149.285 85.0686 148.213 86.3861 148.213C87.7056 148.213 88.7742 149.285 88.7742 150.607Z" fill="#1B8BC8"/>
<path fill-rule="evenodd" clip-rule="evenodd" d="M103.096 150.607C103.096 151.929 102.028 153 100.709 153C99.3909 153 98.3223 151.929 98.3223 150.607C98.3223 149.285 99.3909 148.213 100.709 148.213C102.028 148.213 103.096 149.285 103.096 150.607Z" fill="#1B8BC8"/>
<path fill-rule="evenodd" clip-rule="evenodd" d="M116.225 150.607C116.225 151.929 115.157 153 113.838 153C112.519 153 111.451 151.929 111.451 150.607C111.451 149.285 112.519 148.213 113.838 148.213C115.157 148.213 116.225 149.285 116.225 150.607Z" fill="#1B8BC8"/>
<path fill-rule="evenodd" clip-rule="evenodd" d="M130.548 150.607C130.548 151.929 129.479 153 128.16 153C126.841 153 125.773 151.929 125.773 150.607C125.773 149.285 126.841 148.213 128.16 148.213C129.479 148.213 130.548 149.285 130.548 150.607Z" fill="#1B8BC8"/>
<path fill-rule="evenodd" clip-rule="evenodd" d="M143.677 150.607C143.677 151.929 142.608 153 141.289 153C139.971 153 138.902 151.929 138.902 150.607C138.902 149.285 139.971 148.213 141.289 148.213C142.608 148.213 143.677 149.285 143.677 150.607Z" fill="#1B8BC8"/>
<path fill-rule="evenodd" clip-rule="evenodd" d="M158.001 82.3934C158.001 83.7155 156.933 84.7869 155.613 84.7869C154.295 84.7869 153.227 83.7155 153.227 82.3934C153.227 81.0714 154.295 80 155.613 80C156.933 80 158.001 81.0714 158.001 82.3934Z" fill="#1B8BC8"/>
<path fill-rule="evenodd" clip-rule="evenodd" d="M158.001 95.5574C158.001 96.8794 156.933 97.9508 155.613 97.9508C154.295 97.9508 153.227 96.8794 153.227 95.5574C153.227 94.2359 154.295 93.1639 155.613 93.1639C156.933 93.1639 158.001 94.2359 158.001 95.5574Z" fill="#1B8BC8"/>
<path fill-rule="evenodd" clip-rule="evenodd" d="M158.001 110.517C158.001 112.168 156.933 113.508 155.613 113.508C154.295 113.508 153.227 112.168 153.227 110.517C153.227 108.864 154.295 107.525 155.613 107.525C156.933 107.525 158.001 108.864 158.001 110.517Z" fill="#1B8BC8"/>
<path fill-rule="evenodd" clip-rule="evenodd" d="M158.001 123.68C158.001 125.332 156.933 126.672 155.613 126.672C154.295 126.672 153.227 125.332 153.227 123.68C153.227 122.028 154.295 120.688 155.613 120.688C156.933 120.688 158.001 122.028 158.001 123.68Z" fill="#1B8BC8"/>
<path fill-rule="evenodd" clip-rule="evenodd" d="M158.001 137.443C158.001 138.764 156.933 139.836 155.613 139.836C154.295 139.836 153.227 138.764 153.227 137.443C153.227 136.121 154.295 135.049 155.613 135.049C156.933 135.049 158.001 136.121 158.001 137.443Z" fill="#1B8BC8"/>
<path fill-rule="evenodd" clip-rule="evenodd" d="M158.001 150.607C158.001 151.929 156.933 153 155.613 153C154.295 153 153.227 151.929 153.227 150.607C153.227 149.285 154.295 148.213 155.613 148.213C156.933 148.213 158.001 149.285 158.001 150.607Z" fill="#1B8BC8"/>
</svg>
