<?xml version="1.0" encoding="UTF-8"?>
<svg width="118px" height="29px" viewBox="0 0 118 29" version="1.1" xmlns="http://www.w3.org/2000/svg" xmlns:xlink="http://www.w3.org/1999/xlink">
    <!-- Generator: Sketch 53.2 (72643) - https://sketchapp.com -->
    <title>LOGO</title>
    <desc>Created with Sketch.</desc>
    <g id="Page-1" stroke="none" stroke-width="1" fill="none" fill-rule="evenodd">
        <g id="Home-v1-Dark" transform="translate(-406.000000, -39.000000)" fill="#FFFFFF" fill-rule="nonzero">
            <g id="HEADER" transform="translate(406.000000, 32.000000)">
                <g id="LOGO" transform="translate(0.000000, 5.000000)">
                    <g id="net" transform="translate(0.000000, 2.000000)">
                        <path d="M32.2826087,13.7940759 L30.9913043,13.7940759 C29.7,13.0630219 24.5347826,4.43658421 24.3913043,2.68205451 L25.323913,1.14684103 C25.5391304,0.781314007 25.3956522,0.342681582 25.1086957,0.123365369 C24.75,-0.0959508429 24.3195652,0.0502599653 24.1043478,0.342681582 L23.3152174,1.73168426 C23.3152174,1.73168426 23.2434783,1.80478966 23.2434783,1.80478966 C22.6695652,2.09721128 20.373913,2.4627383 16.5,2.4627383 C12.626087,2.4627383 10.3304348,2.09721128 9.82826087,1.80478966 C9.82826087,1.80478966 9.75652174,1.73168426 9.75652174,1.73168426 L8.9673913,0.342681582 C8.75217391,-0.0228454388 8.32173913,-0.0959508429 7.96304348,0.123365369 C7.60434783,0.342681582 7.5326087,0.781314007 7.74782609,1.14684103 L8.60869565,2.68205451 C8.46521739,4.43658421 3.3,13.0630219 2.00869565,13.7940759 L0.717391304,13.7940759 C0.286956522,13.7940759 0,14.0864976 0,14.52513 C0,14.9637624 0.286956522,15.256184 0.717391304,15.256184 L2.00869565,15.256184 C3.3,15.9872381 8.46521739,24.6136758 8.60869565,26.3682055 L7.67608696,27.9034189 C7.46086957,28.268946 7.60434783,28.7075784 7.89130435,28.9268946 C8.03478261,29 8.10652174,29 8.25,29 C8.46521739,29 8.75217391,28.8537892 8.89565217,28.634473 L9.68478261,27.2454703 C9.68478261,27.2454703 9.75652174,27.1723649 9.75652174,27.1723649 C10.1869565,26.8799433 12.4826087,26.5875217 16.4282609,26.5875217 C20.373913,26.5875217 22.5978261,26.9530487 23.1,27.1723649 C23.1,27.1723649 23.1717391,27.2454703 23.1717391,27.2454703 L23.9608696,28.634473 C24.1043478,28.8537892 24.3195652,29 24.6065217,29 C24.75,29 24.8934783,29 24.9652174,28.9268946 C25.323913,28.7075784 25.3956522,28.268946 25.1804348,27.9034189 L24.3913043,26.3682055 C24.5347826,24.6136758 29.7,15.9141327 30.9913043,15.256184 L32.2826087,15.256184 C32.7130435,15.256184 33,14.9637624 33,14.52513 C33,14.0864976 32.7130435,13.7940759 32.2826087,13.7940759 Z M25.1804348,7.94564361 C25.826087,9.11533008 27.476087,11.9664408 28.9826087,13.7940759 L25.2521739,13.7940759 C24.3913043,13.2092327 21.6652174,8.89601386 21.3065217,7.7263274 L23.3152174,4.2903734 C23.7456522,5.16763825 24.3195652,6.33732472 25.1804348,7.94564361 Z M20.4456522,19.7887191 L17.7913043,15.256184 L23.3152174,15.256184 C22.0956522,16.7182921 20.9478261,18.8383488 20.876087,18.9845596 C20.7326087,19.2769813 20.5891304,19.5694029 20.4456522,19.7887191 Z M12.123913,18.9845596 C12.0521739,18.8383488 10.8326087,16.7182921 9.68478261,15.256184 L15.2086957,15.256184 L12.5543478,19.7887191 C12.4108696,19.5694029 12.2673913,19.2769813 12.123913,18.9845596 Z M12.5543478,9.26154089 L15.2086957,13.7940759 L9.68478261,13.7940759 C10.9043478,12.3319679 12.0521739,10.2119111 12.123913,10.0657003 C12.2673913,9.77327871 12.4108696,9.4808571 12.5543478,9.26154089 Z M13.8456522,8.60359225 C14.4913043,8.67669765 15.3521739,8.74980306 16.5,8.74980306 C17.6478261,8.74980306 18.5086957,8.67669765 19.1543478,8.60359225 L16.5,13.1361273 L13.8456522,8.60359225 Z M16.5,15.9141327 L19.1543478,20.4466677 C18.5086957,20.3735623 17.6478261,20.3004569 16.5,20.3004569 C15.3521739,20.3004569 14.4913043,20.3735623 13.8456522,20.4466677 L16.5,15.9141327 Z M17.7913043,13.7940759 L20.4456522,9.26154089 C20.5891304,9.4808571 20.7326087,9.77327871 20.876087,10.0657003 C20.9478261,10.2119111 22.1673913,12.3319679 23.3152174,13.7940759 L17.7913043,13.7940759 Z M16.5,3.92484638 C19.226087,3.92484638 21.0195652,3.77863558 22.1673913,3.63242477 L20.1586957,6.99527336 C20.1586957,6.99527336 20.1586957,6.99527336 20.1586957,6.99527336 C19.8,7.14148417 18.5086957,7.28769497 16.5,7.28769497 C14.4913043,7.28769497 13.2,7.14148417 12.8413043,6.99527336 C12.8413043,6.99527336 12.8413043,6.99527336 12.8413043,6.99527336 L10.8326087,3.55931936 C11.9804348,3.77863558 13.773913,3.92484638 16.5,3.92484638 Z M7.81956522,7.94564361 C8.75217391,6.33732472 9.25434783,5.16763825 9.61304348,4.2903734 L11.6217391,7.7263274 C11.3347826,8.89601386 8.53695652,13.2092327 7.67608696,13.7940759 L4.0173913,13.7940759 C5.52391304,12.0395462 7.17391304,9.11533008 7.81956522,7.94564361 Z M7.81956522,21.1046164 C7.17391304,19.9349299 5.52391304,17.0838191 4.0173913,15.256184 L7.74782609,15.256184 C8.60869565,15.8410273 11.3347826,20.1542461 11.6934783,21.3239326 L9.61304348,24.7598866 C9.25434783,23.8826217 8.68043478,22.7129352 7.81956522,21.1046164 Z M16.5,25.1254136 C13.773913,25.1254136 11.9804348,25.2716244 10.8326087,25.4178352 L12.8413043,22.0549866 C12.8413043,22.0549866 12.8413043,22.0549866 12.8413043,22.0549866 C13.2,21.9087758 14.4913043,21.762565 16.5,21.762565 C18.5086957,21.762565 19.8,21.9087758 20.1586957,22.0549866 C20.1586957,22.0549866 20.1586957,22.0549866 20.1586957,22.0549866 L22.1673913,25.4178352 C21.0195652,25.2716244 19.226087,25.1254136 16.5,25.1254136 Z M25.1804348,21.1046164 C24.2478261,22.7129352 23.7456522,23.8826217 23.3869565,24.7598866 L21.3782609,21.3239326 C21.6652174,20.1542461 24.4630435,15.8410273 25.323913,15.256184 L29.0543478,15.256184 C27.476087,17.0107137 25.826087,19.9349299 25.1804348,21.1046164 Z" id="Shape"></path>
                    </g>
                    <path d="M44.3808594,11.4033203 L47.3388672,11.4033203 L50.4619141,16.1894531 L53.6230469,11.4033203 L56.4033203,11.4667969 L51.8203125,18.0302734 L56.6064453,25 L53.6865234,25 L50.3095703,19.8964844 L47.0341797,25 L44.1396484,25 L48.9257812,18.0302734 L44.3808594,11.4033203 Z M59.2216797,6.35058594 L67.6132812,6.35058594 C69.2721437,6.35058594 70.6093699,6.81819194 71.625,7.75341797 C72.6406301,8.688644 73.1484375,10.0025957 73.1484375,11.6953125 C73.1484375,13.1510489 72.6956425,14.4184516 71.7900391,15.4975586 C70.8844356,16.5766656 69.4921969,17.1162109 67.6132812,17.1162109 L61.7480469,17.1162109 L61.7480469,25 L59.2216797,25 L59.2216797,6.35058594 Z M70.5966797,11.7080078 C70.5966797,10.3369072 70.0888723,9.40592693 69.0732422,8.91503906 C68.5146456,8.65266796 67.7487028,8.52148438 66.7753906,8.52148438 L61.7480469,8.52148438 L61.7480469,14.9833984 L66.7753906,14.9833984 C67.9095109,14.9833984 68.8299118,14.7421899 69.5366211,14.2597656 C70.2433304,13.7773413 70.5966797,12.9267639 70.5966797,11.7080078 Z M76.0175781,11.4667969 L78.3408203,11.4667969 L78.3408203,25 L76.0175781,25 L76.0175781,11.4667969 Z M76.0175781,6.35058594 L78.3408203,6.35058594 L78.3408203,8.94042969 L76.0175781,8.94042969 L76.0175781,6.35058594 Z M83.2412109,18.3603516 C83.2412109,19.816088 83.5501271,21.0348258 84.1679688,22.0166016 C84.7858104,22.9983773 85.7760349,23.4892578 87.1386719,23.4892578 C88.1966199,23.4892578 89.0662401,23.034347 89.7475586,22.1245117 C90.4288771,21.2146764 90.7695312,19.9091882 90.7695312,18.2080078 C90.7695312,16.4899003 90.4182978,15.2182658 89.7158203,14.3930664 C89.0133428,13.567867 88.1458385,13.1552734 87.1132812,13.1552734 C85.9622338,13.1552734 85.0291377,13.5953732 84.3139648,14.4755859 C83.598792,15.3557987 83.2412109,16.6507076 83.2412109,18.3603516 Z M86.6816406,11.1621094 C87.7226615,11.1621094 88.5943975,11.3821593 89.296875,11.8222656 C89.703127,12.0761731 90.1643854,12.5205046 90.6806641,13.1552734 L90.6806641,6.28710938 L92.8769531,6.28710938 L92.8769531,25 L90.8203125,25 L90.8203125,23.1083984 C90.2871067,23.9462933 89.6565792,24.5514304 88.9287109,24.9238281 C88.2008427,25.2962258 87.3671922,25.4824219 86.4277344,25.4824219 C84.9127528,25.4824219 83.600917,24.8455467 82.4921875,23.5717773 C81.383458,22.298008 80.8291016,20.6032007 80.8291016,18.4873047 C80.8291016,16.506826 81.3347931,14.7908601 82.3461914,13.3393555 C83.3575897,11.8878508 84.802725,11.1621094 86.6816406,11.1621094 Z M101.916016,11.0986328 C102.880864,11.0986328 103.816076,11.3250303 104.72168,11.777832 C105.627283,12.2306338 106.317055,12.8167282 106.791016,13.5361328 C107.248049,14.2216831 107.552734,15.0214798 107.705078,15.9355469 C107.840495,16.5618521 107.908203,17.56054 107.908203,18.9316406 L97.9423828,18.9316406 C97.9847007,20.3112048 98.3105438,21.4178018 98.9199219,22.2514648 C99.5292999,23.0851279 100.472975,23.5019531 101.750977,23.5019531 C102.944342,23.5019531 103.896481,23.1084024 104.607422,22.3212891 C105.013674,21.8642555 105.301431,21.3352895 105.470703,20.734375 L107.717773,20.734375 C107.658528,21.2337265 107.461753,21.7901988 107.127441,22.4038086 C106.79313,23.0174184 106.418622,23.5188783 106.003906,23.9082031 C105.309892,24.5852898 104.450851,25.0423165 103.426758,25.2792969 C102.876625,25.4147142 102.254561,25.4824219 101.560547,25.4824219 C99.8678301,25.4824219 98.4332741,24.8667054 97.2568359,23.6352539 C96.0803978,22.4038024 95.4921875,20.6793731 95.4921875,18.4619141 C95.4921875,16.2783094 96.0846295,14.5052151 97.2695312,13.1425781 C98.454433,11.7799411 100.003246,11.0986328 101.916016,11.0986328 Z M105.55957,17.1162109 C105.466471,16.1259716 105.250653,15.3346384 104.912109,14.7421875 C104.285804,13.6419216 103.240567,13.0917969 101.776367,13.0917969 C100.726883,13.0917969 99.8466832,13.4705366 99.1357422,14.2280273 C98.4248011,14.9855181 98.0481773,15.9482363 98.0058594,17.1162109 L105.55957,17.1162109 Z M110.777344,11.4033203 L112.948242,11.4033203 L112.948242,13.7519531 C113.125977,13.2949196 113.561845,12.7384473 114.255859,12.0825195 C114.949873,11.4265918 115.74967,11.0986328 116.655273,11.0986328 C116.697591,11.0986328 116.769531,11.1028645 116.871094,11.1113281 C116.972657,11.1197917 117.146158,11.1367186 117.391602,11.1621094 L117.391602,13.5742188 C117.256184,13.548828 117.131348,13.5319011 117.01709,13.5234375 C116.902831,13.5149739 116.777995,13.5107422 116.642578,13.5107422 C115.491531,13.5107422 114.607099,13.8810184 113.989258,14.621582 C113.371416,15.3621456 113.0625,16.2148389 113.0625,17.1796875 L113.0625,25 L110.777344,25 L110.777344,11.4033203 Z" id="xPider"></path>
                </g>
            </g>
        </g>
    </g>
</svg>