<svg width="41" height="41" viewBox="0 0 41 41" fill="none" xmlns="http://www.w3.org/2000/svg">
<path fill-rule="evenodd" clip-rule="evenodd" d="M22 30.4118L30.9607 39.2896C33.2838 41.5701 36.9345 41.5701 39.2576 39.2896V39.2896C41.5808 37.009 41.5808 33.4253 39.2576 31.1448L30.9607 23" fill="#FF8C71"/>
<path fill-rule="evenodd" clip-rule="evenodd" d="M40.5244 11.3874L35.715 16.3294L29.9273 10.3822L34.7368 5.44016C33.6771 5.10511 32.4543 4.93758 31.2316 5.02135C26.6666 5.44016 22.9984 9.62834 23.0799 14.3191C23.0799 15.2405 23.2429 16.1619 23.4875 16.9995L7.83631 31.2393C5.47233 33.3334 5.39081 37.1028 7.59176 39.3644V39.3644C9.7927 41.626 13.3794 41.5422 15.4989 39.1131L29.3567 23.0305C30.7425 23.4493 32.2913 23.6168 33.9216 23.2818C37.1823 22.6117 39.8723 20.0988 40.769 16.832C41.1766 14.8217 41.0135 12.9789 40.5244 11.3874Z" fill="#FFDF7B"/>
<path fill-rule="evenodd" clip-rule="evenodd" d="M10.4602 15L13.885 13.885L15 10.5398L10.4602 6L6 10.5398L10.4602 15Z" fill="#FF8C71"/>
<path d="M18 26.4118L26.9607 35.2896C29.2838 37.5701 32.9345 37.5701 35.2576 35.2896V35.2896C37.5808 33.009 37.5808 29.4253 35.2576 27.1448L26.9607 19" stroke="white" stroke-width="2"/>
<path d="M15 16L10 11" stroke="white" stroke-width="2"/>
<path fill-rule="evenodd" clip-rule="evenodd" d="M36.5244 7.38737L31.715 12.3294L25.9273 6.38221L30.7368 1.44016C29.6771 1.10511 28.4543 0.937582 27.2316 1.02135C22.6666 1.44016 18.9984 5.62834 19.0799 10.3191C19.0799 11.2405 19.2429 12.1619 19.4875 12.9995L3.83631 27.2393C1.47233 29.3334 1.39081 33.1028 3.59176 35.3644V35.3644C5.7927 37.626 9.37943 37.5422 11.4989 35.1131L25.3567 19.0305C26.7425 19.4493 28.2913 19.6168 29.9216 19.2818C33.1823 18.6117 35.8723 16.0988 36.769 12.832C37.1766 10.8217 37.0135 8.97888 36.5244 7.38737Z" stroke="white" stroke-width="2" stroke-linecap="square"/>
<path fill-rule="evenodd" clip-rule="evenodd" d="M6.46018 11L9.88496 9.88496L11 6.53982L6.46018 2L2 6.53982L6.46018 11Z" stroke="white" stroke-width="2" stroke-linecap="square"/>
<path d="M27 27L30 30" stroke="white" stroke-width="2" stroke-linecap="square"/>
</svg>
