<svg width="612" height="585" viewBox="0 0 612 585" fill="none" xmlns="http://www.w3.org/2000/svg">
<g opacity="0.0425037" filter="url(#filter0_d)">
<path fill-rule="evenodd" clip-rule="evenodd" d="M592.978 286.346H565.939C538.9 271.17 430.743 92.0974 427.739 55.6758L447.267 23.8068C451.774 16.219 448.77 7.1136 442.761 2.56089C435.25 -1.99181 426.237 1.04333 421.73 7.1136L405.207 35.9474L403.704 37.4649C391.687 43.5352 343.617 51.1231 262.5 51.1231C181.383 51.1231 133.313 43.5352 122.798 37.4649L121.296 35.9474L104.772 7.1136C100.265 -0.47424 91.2522 -1.99181 83.7413 2.56089C76.2304 7.1136 74.7283 16.219 79.2348 23.8068L97.2609 55.6758C94.2565 92.0974 -13.9 271.17 -40.9391 286.346H-67.9783C-76.9913 286.346 -83 292.416 -83 301.522C-83 310.627 -76.9913 316.697 -67.9783 316.697H-40.9391C-13.9 331.873 94.2565 510.946 97.2609 547.368L77.7326 579.237C73.2261 586.824 76.2304 595.93 82.2391 600.482C85.2435 602 86.7457 602 89.75 602C94.2565 602 100.265 598.965 103.27 594.412L119.793 565.578L121.296 564.061C130.309 557.991 178.378 551.92 260.998 551.92C343.617 551.92 390.185 559.508 400.7 564.061L402.202 565.578L418.726 594.412C421.73 598.965 426.237 602 432.246 602C435.25 602 438.254 602 439.757 600.482C447.267 595.93 448.77 586.824 444.263 579.237L427.739 547.368C430.743 510.946 538.9 330.355 565.939 316.697H592.978C601.991 316.697 608 310.627 608 301.522C608 292.416 601.991 286.346 592.978 286.346ZM444.263 164.941C457.783 189.222 492.333 248.407 523.878 286.346H445.765C427.739 274.205 370.657 184.669 363.146 160.388L405.207 89.0622C414.22 107.273 426.237 131.554 444.263 164.941ZM289.539 316.697L345.12 410.786C348.124 406.234 351.128 400.164 354.133 394.093C355.635 391.058 379.67 347.049 405.207 316.697H289.539ZM170.867 394.093C169.365 391.058 143.828 347.049 119.793 316.697H235.461L179.88 410.786C176.876 406.234 173.872 400.164 170.867 394.093ZM235.461 286.346L179.88 192.257C176.876 196.809 173.872 202.88 170.868 208.95L170.867 208.95C169.365 211.985 145.33 255.995 119.793 286.346H235.461ZM206.92 178.599C220.439 180.116 238.465 181.634 262.5 181.634C286.535 181.634 304.561 180.116 318.08 178.599L262.5 272.688L206.92 178.599ZM318.08 424.445L262.5 330.355L206.92 424.445C220.439 422.927 238.465 421.409 262.5 421.409C286.535 421.409 304.561 422.927 318.08 424.445ZM289.539 286.346L345.12 192.257C348.124 196.81 351.128 202.88 354.133 208.95C355.635 211.985 381.172 255.995 405.207 286.346H289.539ZM381.172 75.4041C357.137 78.4393 319.583 81.4744 262.5 81.4744C205.417 81.4744 167.863 78.4393 143.828 73.8866L185.889 145.212C193.4 148.247 220.439 151.283 262.5 151.283C304.561 151.283 331.6 148.247 339.111 145.212L381.172 75.4041ZM80.737 164.941C100.265 131.554 110.78 107.273 118.291 89.0622L160.352 160.388C154.343 184.669 95.7587 274.205 77.7326 286.346H1.12174C32.6674 249.924 67.2174 189.222 80.737 164.941ZM1.12174 316.697C32.6674 354.637 67.2174 413.822 80.737 438.103C98.763 471.489 110.78 495.77 118.291 513.981L161.854 442.655C154.343 418.374 97.2609 328.838 79.2348 316.697H1.12174ZM262.5 521.569C205.417 521.569 167.863 524.604 143.828 527.639L185.889 457.831C193.4 454.796 220.439 451.761 262.5 451.761C304.561 451.761 331.6 454.796 339.111 457.831L381.172 527.639C357.137 524.604 319.583 521.569 262.5 521.569ZM406.709 513.981C414.22 495.77 424.735 471.489 444.263 438.103C457.783 413.822 492.333 353.119 525.38 316.697H447.267C429.241 328.838 370.657 418.374 364.648 442.655L406.709 513.981Z" fill="#F6F8F9"/>
</g>
<defs>
<filter id="filter0_d" x="-87" y="0" width="699" height="610" filterUnits="userSpaceOnUse" color-interpolation-filters="sRGB">
<feFlood flood-opacity="0" result="BackgroundImageFix"/>
<feColorMatrix in="SourceAlpha" type="matrix" values="0 0 0 0 0 0 0 0 0 0 0 0 0 0 0 0 0 0 127 0"/>
<feOffset dy="4"/>
<feGaussianBlur stdDeviation="2"/>
<feColorMatrix type="matrix" values="0 0 0 0 0 0 0 0 0 0 0 0 0 0 0 0 0 0 0.25 0"/>
<feBlend mode="normal" in2="BackgroundImageFix" result="effect1_dropShadow"/>
<feBlend mode="normal" in="SourceGraphic" in2="effect1_dropShadow" result="shape"/>
</filter>
</defs>
</svg>
